name Walk3.mot
datacolumns 19
datarows 30
range 1.92000000 2.06500000
endheader

                time	   L_ground_force_vx	   L_ground_force_vy	   L_ground_force_vz	   L_ground_force_px	   L_ground_force_py	   L_ground_force_pz	   R_ground_force_vx	   R_ground_force_vy	   R_ground_force_vz	   R_ground_force_px	   R_ground_force_py	   R_ground_force_pz	   L_ground_torque_x	   L_ground_torque_y	   L_ground_torque_z	   R_ground_torque_x	   R_ground_torque_y	   R_ground_torque_z	
          1.92000000	         -0.08080196	          0.59255615	         -0.03671576	          0.00039886	          0.00000000	          0.00021904	         12.82290061	        662.46593571	        -20.19460877	         -0.12095405	          0.00000000	          0.34652703	          0.00000000	         -0.00068620	          0.00000000	          0.00000000	          1.84917423	          0.00000000	
          1.92500000	         -0.09529700	          0.48710257	         -0.01818144	          0.00019637	          0.00000000	          0.00009462	         15.63331578	        674.91223564	        -20.97000132	         -0.11946609	          0.00000000	          0.34636993	          0.00000000	         -0.00076059	          0.00000000	          0.00000000	          1.72911978	          0.00000000	
          1.93000000	         -0.10614747	          0.26258697	          0.01296287	         -0.00014361	          0.00000000	         -0.00011107	         18.76553499	        687.34021740	        -21.78399375	         -0.11808948	          0.00000000	          0.34620488	          0.00000000	         -0.00078278	          0.00000000	          0.00000000	          1.60454058	          0.00000000	
          1.93500000	         -0.10997652	         -0.11990245	          0.05993001	         -0.00065607	          0.00000000	         -0.00041812	         22.24079615	        699.68106063	        -22.57695924	         -0.11683128	          0.00000000	          0.34603000	          0.00000000	         -0.00072086	          0.00000000	          0.00000000	          1.48478570	          0.00000000	
          1.94000000	         -0.10238426	         -0.70156135	          0.12577854	         -0.00137426	          0.00000000	         -0.00084536	         26.07240732	        711.85259256	        -23.27844520	         -0.11569646	          0.00000000	          0.34584310	          0.00000000	         -0.00053539	          0.00000000	          0.00000000	          1.38088244	          0.00000000	
          1.94500000	         -0.07791820	         -1.52206622	          0.21294939	         -0.00232472	          0.00000000	         -0.00140733	         30.26175009	        723.75799750	        -23.82229956	         -0.11468648	          0.00000000	          0.34564148	          0.00000000	         -0.00018015	          0.00000000	          0.00000000	          1.30307549	          0.00000000	
          1.95000000	         -0.03015681	         -2.61383136	          0.32261921	         -0.00352014	          0.00000000	         -0.00211009	         34.79826844	        735.28468953	        -24.16497619	         -0.11379860	          0.00000000	          0.34542349	          0.00000000	          0.00039603	          0.00000000	          0.00000000	          1.25866004	          0.00000000	
          1.95500000	          0.04804051	         -3.99394898	          0.45384808	         -0.00495011	          0.00000000	         -0.00294574	         39.66334414	        746.30630479	        -24.28729803	         -0.11302507	          0.00000000	          0.34518823	          0.00000000	          0.00124567	          0.00000000	          0.00000000	          1.25111116	          0.00000000	
          1.96000000	          0.16405507	         -5.65351032	          0.60251152	         -0.00656951	          0.00000000	         -0.00388553	         44.82955852	        756.68392490	        -24.18978433	         -0.11235248	          0.00000000	          0.34493656	          0.00000000	          0.00241695	          0.00000000	          0.00000000	          1.27914346	          0.00000000	
          1.96500000	          0.32473324	         -7.54416003	          0.76002767	         -0.00828455	          0.00000000	         -0.00487183	         50.25544281	        766.27583043	        -23.88968789	         -0.11176516	          0.00000000	          0.34467059	          0.00000000	          0.00394534	          0.00000000	          0.00000000	          1.33780880	          0.00000000	
          1.97000000	          0.53524278	         -9.56199405	          0.91192240	         -0.00993723	          0.00000000	         -0.00580901	         55.88440814	        774.94257197	        -23.41649324	         -0.11124702	          0.00000000	          0.34439395	          0.00000000	          0.00584211	          0.00000000	          0.00000000	          1.41969052	          0.00000000	
          1.97500000	          0.79749663	        -11.52930112	          1.03631834	         -0.01128885	          0.00000000	         -0.00655402	         61.64916341	        782.55038555	        -22.80659411	         -0.11078288	          0.00000000	          0.34410890	          0.00000000	          0.00807940	          0.00000000	          0.00000000	          1.51575642	          0.00000000	
          1.98000000	          1.10809623	        -13.17519327	          1.10249168	         -0.01200431	          0.00000000	         -0.00690748	         67.47873023	        788.97642470	        -22.10058025	         -0.11035914	          0.00000000	          0.34381521	          0.00000000	          0.01057178	          0.00000000	          0.00000000	          1.61690573	          0.00000000	
          1.98500000	          1.45577956	        -14.11689281	          1.06971286	         -0.01163952	          0.00000000	         -0.00660676	         73.30624512	        794.10636090	        -21.34297697	         -0.10996403	          0.00000000	          0.34351477	          0.00000000	          0.01315453	          0.00000000	          0.00000000	          1.71452505	          0.00000000	
          1.99000000	          1.81841139	        -13.84435066	          0.88667261	         -0.00963518	          0.00000000	         -0.00532304	         79.07505153	        797.83582640	        -20.58057901	         -0.10958919	          0.00000000	          0.34321171	          0.00000000	          0.01555971	          0.00000000	          0.00000000	          1.80031790	          0.00000000	
          1.99500000	          2.15963093	        -11.71195679	          0.49189172	         -0.00532137	          0.00000000	         -0.00266475	         84.74111968	        800.07179963	        -19.85956219	         -0.10923008	          0.00000000	          0.34290942	          0.00000000	          0.01739135	          0.00000000	          0.00000000	          1.86664700	          0.00000000	
          2.00000000	          2.42537862	         -6.94233190	         -0.18438565	          0.00206177	          0.00000000	          0.00180918	         90.27242362	        800.72745153	        -19.22267512	         -0.10888686	          0.00000000	          0.34261212	          0.00000000	          0.01810272	          0.00000000	          0.00000000	          1.90634557	          0.00000000	
          2.00500000	          2.54066288	          1.35150884	         -1.21621893	          0.01332061	          0.00000000	          0.00856261	         95.64641151	        799.71870881	        -18.70563790	         -0.10856556	          0.00000000	          0.34232455	          0.00000000	          0.01697944	          0.00000000	          0.00000000	          1.91328162	          0.00000000	
          2.01000000	          2.40709975	         14.11807682	         -2.67524486	          0.02923462	          0.00000000	          0.01803775	        100.84766684	        796.95638868	        -18.33349547	         -0.10827574	          0.00000000	          0.34205120	          0.00000000	          0.01313379	          0.00000000	          0.00000000	          1.88349555	          0.00000000	
          2.01500000	          1.90196112	         32.28484859	         -4.62048749	          0.05044515	          0.00000000	          0.03058854	        105.86649441	        792.33528430	        -18.11726948	         -0.10802908	          0.00000000	          0.34179650	          0.00000000	          0.00551719	          0.00000000	          0.00000000	          1.81501367	          0.00000000	
          2.02000000	          0.87969297	         56.63211549	         -7.08402352	          0.07729912	          0.00000000	          0.04638757	        110.69572511	        785.72423879	        -18.04997789	         -0.10783895	          0.00000000	          0.34156640	          0.00000000	         -0.00704040	          0.00000000	          0.00000000	          1.70805822	          0.00000000	
          2.02500000	         -0.82290209	         87.61441941	        -10.05195260	          0.10964150	          0.00000000	          0.06530335	        115.32566377	        776.96272439	        -18.10491949	         -0.10771838	          0.00000000	          0.34136767	          0.00000000	         -0.02575418	          0.00000000	          0.00000000	          1.56493429	          0.00000000	
          2.03000000	         -3.37640733	        125.12227738	        -13.44039297	          0.14655367	          0.00000000	          0.08674650	        119.73801307	        765.86488103	        -18.23622718	         -0.10767983	          0.00000000	          0.34120650	          0.00000000	         -0.05175985	          0.00000000	          0.00000000	          1.38934357	          0.00000000	
          2.03500000	         -6.94193620	        168.18031425	        -17.06668141	          0.18604232	          0.00000000	          0.10948790	        123.89865118	        752.22831698	        -18.38170914	         -0.10773300	          0.00000000	          0.34108787	          0.00000000	         -0.08592987	          0.00000000	          0.00000000	          1.18686112	          0.00000000	
          2.04000000	        -11.65392667	        214.62156783	        -20.61718024	          0.22507434	          0.00000000	          0.13168559	        127.75267394	        735.83862244	        -18.47008618	         -0.10788012	          0.00000000	          0.34101629	          0.00000000	         -0.12870999	          0.00000000	          0.00000000	          0.96477687	          0.00000000	
          2.04500000	        -17.62983542	        261.22909729	        -23.62496858	          0.26104562	          0.00000000	          0.15175878	        131.22144457	        716.47595722	        -18.43057124	         -0.10811085	          0.00000000	          0.34099787	          0.00000000	         -0.18034812	          0.00000000	          0.00000000	          0.73187841	          0.00000000	
          2.05000000	        -24.93815569	        305.16137031	        -25.51677899	          0.29250388	          0.00000000	          0.16881256	        134.20274324	        693.93404457	        -18.20343297	         -0.10839625	          0.00000000	          0.34104090	          0.00000000	         -0.24188732	          0.00000000	          0.00000000	          0.49834934	          0.00000000	
          2.05500000	        -33.50345892	        345.18967642	        -25.77483384	          0.31889429	          0.00000000	          0.18249345	        136.57343064	        668.04596784	        -17.75015733	         -0.10868324	          0.00000000	          0.34115742	          0.00000000	         -0.31608985	          0.00000000	          0.00000000	          0.27399070	          0.00000000	
          2.06000000	        -43.11373095	        381.27996009	        -24.09995602	          0.34028288	          0.00000000	          0.19282975	        138.19026401	        638.70955587	        -17.05707157	         -0.10888943	          0.00000000	          0.34136322	          0.00000000	         -0.40634023	          0.00000000	          0.00000000	          0.06747391	          0.00000000	
          2.06500000	        -53.49477936	        413.88196983	        -20.45907114	          0.35713164	          0.00000000	          0.20009944	        138.89160352	        605.89727101	        -16.13116703	         -0.10889598	          0.00000000	          0.34167545	          0.00000000	         -0.51484831	          0.00000000	          0.00000000	         -0.11386248	          0.00000000	
